<?xml version="1.0" standalone="no"?>
<!DOCTYPE svg PUBLIC "-//W3C//DTD SVG 20010904//EN"
 "http://www.w3.org/TR/2001/REC-SVG-20010904/DTD/svg10.dtd">
<svg version="1.0" xmlns="http://www.w3.org/2000/svg"
 width="980.000000pt" height="980.000000pt" viewBox="0 0 980.000000 980.000000"
 preserveAspectRatio="xMidYMid meet">
<metadata>
Created by potrace 1.11, written by Peter Selinger 2001-2013
</metadata>
<g transform="translate(0.000000,980.000000) scale(0.100000,-0.100000)"
fill="#000000" stroke="none">
<path d="M3724 9791 c-115 -5 -156 -10 -175 -22 -49 -33 -52 -60 -57 -539 -2
-245 -1 -469 3 -499 6 -44 14 -61 47 -97 l41 -44 1321 0 1322 0 32 33 c18 18
37 49 43 68 5 20 12 239 16 519 l6 486 -54 52 -54 52 -1170 -2 c-643 -1 -1238
-4 -1321 -7z"/>
<path d="M2019 9300 c-93 -9 -132 -21 -229 -71 -184 -95 -327 -266 -400 -479
-20 -59 -23 -94 -30 -355 -15 -523 -22 -4805 -12 -6290 10 -1410 11 -1431 32
-1505 78 -278 283 -486 562 -572 l73 -23 2897 -3 2898 -3 87 37 c271 111 414
256 527 534 l26 64 3 3936 c1 3095 -1 3956 -10 4032 -38 288 -203 516 -471
650 l-107 53 -617 0 c-562 0 -619 -1 -634 -17 -13 -13 -18 -43 -22 -150 l-5
-135 438 -6 c241 -4 512 -7 602 -7 l164 0 79 -51 c89 -57 151 -121 207 -212
l38 -62 3 -3675 c2 -2021 -1 -3823 -5 -4005 l-9 -330 -35 -65 c-44 -83 -138
-179 -211 -214 -54 -26 -66 -28 -270 -36 -267 -12 -5102 -12 -5368 -1 -107 5
-214 14 -236 21 -89 27 -210 143 -261 250 l-26 55 -9 590 c-5 325 -6 2124 -2
4000 l6 3410 40 68 c50 87 125 161 213 214 l70 41 585 7 c322 4 586 8 587 9 8
7 23 148 23 219 l0 87 -557 -1 c-307 -1 -592 -5 -634 -9z"/>
<path d="M2447 8160 c-102 -13 -199 -95 -229 -193 -10 -32 -12 -165 -10 -577
l3 -535 77 -77 77 -77 545 -3 c536 -3 546 -3 591 18 62 29 119 81 141 130 33
76 41 223 35 629 -7 415 -14 483 -55 565 -23 46 -36 59 -82 82 -37 18 -83 31
-140 38 -95 11 -863 11 -953 0z m923 -725 l0 -425 -435 0 -435 0 0 425 0 425
435 0 435 0 0 -425z"/>
<path d="M4555 7570 c-82 -4 -158 -10 -167 -14 -33 -15 -58 -70 -58 -127 0
-46 6 -62 36 -106 l36 -53 1247 1 c1478 0 1856 7 1896 33 75 50 71 205 -7 247
-14 7 -92 16 -193 20 -206 9 -2579 8 -2790 -1z"/>
<path d="M2463 6200 c-34 -5 -76 -16 -94 -26 -52 -26 -136 -116 -150 -160 -9
-29 -13 -180 -16 -563 l-5 -524 37 -53 c49 -71 105 -120 152 -134 87 -26 331
-34 693 -23 406 13 435 18 500 84 22 23 52 66 67 97 l28 57 0 505 0 505 -24
53 c-31 69 -111 142 -182 167 -49 17 -93 19 -499 21 -245 1 -473 -1 -507 -6z
m907 -741 l0 -430 -424 3 c-233 2 -427 6 -431 10 -10 9 -20 733 -11 790 6 37
11 48 29 51 12 2 205 5 430 6 l407 1 0 -431z"/>
<path d="M4388 5593 c-52 -57 -64 -89 -60 -166 3 -44 58 -95 117 -108 66 -14
2430 -24 2790 -11 287 10 309 14 345 75 40 65 18 176 -42 208 -41 22 -397 28
-1769 28 l-1355 1 -26 -27z"/>
<path d="M2535 4240 c-68 -4 -125 -13 -149 -23 -65 -28 -122 -83 -153 -145
l-28 -57 -3 -445 c-4 -524 2 -608 49 -682 18 -28 50 -63 71 -78 69 -50 126
-55 643 -55 l470 0 66 31 c94 45 132 87 155 170 17 63 19 109 19 544 0 366 -3
487 -14 528 -18 72 -81 140 -162 176 -55 25 -78 29 -223 37 -183 9 -577 9
-741 -1z m835 -740 l0 -431 -424 3 c-233 2 -427 6 -431 10 -9 9 -20 777 -11
811 4 18 14 27 34 30 15 2 208 5 430 6 l402 1 0 -430z"/>
<path d="M4610 3650 c-96 -4 -187 -12 -201 -18 -63 -26 -99 -108 -79 -179 15
-57 41 -84 91 -95 58 -13 2534 -22 2854 -10 156 5 248 13 263 21 60 32 82 143
42 208 -35 58 -63 65 -290 74 -247 9 -2432 8 -2680 -1z"/>
<path d="M2475 2261 c-122 -12 -220 -77 -245 -162 -10 -33 -14 -183 -17 -594
l-5 -550 65 -62 c104 -100 89 -98 682 -98 487 0 501 1 546 21 62 29 119 81
140 130 30 67 39 200 39 584 0 386 -9 517 -39 586 -22 48 -102 117 -159 135
-42 14 -887 22 -1007 10z m895 -736 l0 -425 -425 0 -424 0 -8 38 c-10 48 -10
726 0 775 l8 37 424 0 425 0 0 -425z"/>
<path d="M4462 1669 c-96 -16 -128 -43 -132 -109 -4 -69 0 -89 27 -121 58 -68
51 -67 633 -74 629 -8 2458 10 2514 24 22 5 51 21 65 36 24 23 26 33 26 105 0
72 -2 82 -26 106 -24 24 -35 26 -155 34 -167 12 -2882 10 -2952 -1z"/>
</g>
</svg>
